<svg width="1000" height="1000" xmlns="http://www.w3.org/2000/svg">
 <!--Unicode Character 'CIRCLED ASTERISK OPERATOR' (U+229B)-->
 <g display="inline" stroke="null">
  <title>Layer 3</title>
  <rect stroke="null" fill="#003f7f" stroke-width="5" stroke-dasharray="null" stroke-linejoin="null" stroke-linecap="null" x="109.934407" y="125.846786" width="369.029446" height="370.047537" id="svg_10"/>
 </g>
 <g stroke="null" display="inline">
  <title>Layer 2</title>
  <circle fill="#bfbfbf" stroke-width="5" stroke-dasharray="null" stroke-linejoin="null" stroke-linecap="null" cx="466.734414" cy="492.446755" r="346.302673" id="svg_6" stroke="null"/>
 </g>
 <g stroke="null">
  <title>Layer 1</title>
  <g id="svg_1" stroke="null">
   <g id="svg_2" stroke="null">
    <path d="m853.46875,497.88324q0,153.799377 -109.096802,262.629822q-109.096436,108.83075 -262.895813,108.83075q-153.799774,0 -262.630157,-108.83075q-108.830376,-108.830444 -108.830376,-262.629822q0,-153.799377 108.830376,-262.895813q108.830383,-109.096817 262.630157,-109.096817q153.799377,0 262.895813,109.096817q109.096802,109.096466 109.096802,262.895813zm-52.685669,0q0,-131.44812 -93.929443,-225.377502q-93.929749,-93.929382 -225.377502,-93.929382q-131.44809,0 -225.377472,93.929382q-93.929413,93.929382 -93.929413,225.377502q0,131.44812 93.929413,225.377441q93.929382,93.929443 225.377472,93.929443q131.447754,0 225.377502,-93.929443q93.929443,-93.929321 93.929443,-225.377441zm-79.294495,26.07666l-194.2453,0l96.856628,168.700317l-45.767578,26.077087l-96.856201,-167.63623l-96.856598,167.63623l-45.767151,-26.077087l96.856262,-168.700317l-193.712875,0l0,-52.153259l193.712875,0l-96.856262,-169.23291l45.767151,-26.076599l96.856598,168.700348l96.856201,-168.700348l45.767578,26.076599l-96.856628,169.23291l194.2453,0l0,52.153259z" id="svg_3" fill="#003f7f" stroke="null"/>
   </g>
  </g>
 </g>
</svg>
